<?xml version="1.0" encoding="utf-8"?>
<!-- Generator: Adobe Illustrator 23.0.5, SVG Export Plug-In . SVG Version: 6.00 Build 0)  -->
<svg version="1.1" id="Слой_1" xmlns="http://www.w3.org/2000/svg" xmlns:xlink="http://www.w3.org/1999/xlink" x="0px" y="0px"
	 viewBox="0 0 1455.2 1456.3" style="enable-background:new 0 0 1455.2 1456.3;" xml:space="preserve">
<style type="text/css">
	.st0{fill-rule:evenodd;clip-rule:evenodd;fill:#262626;}
	.st1{fill-rule:evenodd;clip-rule:evenodd;fill:#636363;}
	.st2{fill-rule:evenodd;clip-rule:evenodd;fill:#ED2E2E;}
	.st3{fill-rule:evenodd;clip-rule:evenodd;fill:#FF5E5E;}
	.st4{fill-rule:evenodd;clip-rule:evenodd;fill:#DB1A1A;}
	.st5{fill:#919191;}
	.st6{fill:#D1D1D1;}
	.st7{fill:#999999;}
	.st8{fill:#6E6E6E;}
	.st9{fill-rule:evenodd;clip-rule:evenodd;fill:#999999;}
	.st10{fill-rule:evenodd;clip-rule:evenodd;fill:#FF6969;}
	.st11{fill:#666666;}
	.st12{fill:#616161;}
	.st13{fill:#6B6B6B;}
	.st14{fill:#5E5E5E;}
	.st15{fill-rule:evenodd;clip-rule:evenodd;fill:#6E6E6E;}
	.st16{fill:#696969;}
</style>
<path class="st0" d="M1246.7,1326.1c29-29,76.2-29,105.2,0c29,29,29,76.2,0,105.2c-29,29-76.1,29-105.2,0
	C1217.7,1402.3,1217.7,1355.1,1246.7,1326.1"/>
<path class="st1" d="M1263.6,1343c19.7-19.7,51.7-19.7,71.4,0c19.7,19.7,19.7,51.7,0,71.4c-19.7,19.7-51.7,19.7-71.4,0
	C1243.9,1394.8,1243.9,1362.8,1263.6,1343"/>
<path class="st2" d="M1246.3,1286.2c-1,18.2-0.2,36.7,2.9,55.5c6.4,32.8,18.1,57.4,45.1,63.4c19.9,3,34.9-0.2,39.7-13.5
	c1.5-6.4,2.2-16.7-8.3-24.4c-14.7-14-13.6-42.9-9.5-81.6L1246.3,1286.2z"/>
<path class="st3" d="M1283.6,1388.4c7.4,7.4,19.5,7.4,26.8,0c7.4-7.4,7.4-19.4,0-26.8c-7.4-7.4-19.4-7.4-26.8,0
	C1276.2,1369,1276.2,1381,1283.6,1388.4"/>
<path class="st0" d="M1290.5,1382.3c4.1,4,10.6,4,14.7,0c4-4,4-10.6,0-14.7c-4-4-10.6-4-14.7,0
	C1286.4,1371.7,1286.4,1378.2,1290.5,1382.3"/>
<path class="st4" d="M1246.3,1296c0.3,7.9,0.7,15.7,1.4,23.6h65.6l0.8-23.6H1246.3z"/>
<path class="st0" d="M386.1,1329.3c29-29,76.2-29,105.2,0c29,29,29,76.2,0,105.2c-29,29-76.1,29-105.2,0
	C357.1,1405.5,357.1,1358.4,386.1,1329.3"/>
<path class="st1" d="M403.1,1346.3c19.7-19.7,51.7-19.7,71.4,0c19.7,19.7,19.7,51.7,0,71.4c-19.7,19.7-51.7,19.7-71.4,0
	C383.4,1398,383.4,1366,403.1,1346.3"/>
<path class="st2" d="M385.8,1289.4c-1,18.3-0.2,36.7,2.9,55.5c6.4,32.8,18.1,57.4,45.1,63.4c19.9,3,34.9-0.2,39.7-13.5
	c1.5-6.4,2.2-16.7-8.3-24.5c-14.7-14-13.6-42.8-9.5-81.6L385.8,1289.4z"/>
<path class="st3" d="M423,1391.6c7.4,7.4,19.4,7.4,26.8,0c7.4-7.4,7.4-19.4,0-26.8c-7.4-7.4-19.4-7.4-26.8,0
	C415.6,1372.2,415.6,1384.2,423,1391.6"/>
<path class="st0" d="M429.9,1385.5c4.1,4,10.6,4,14.7,0c4-4,4-10.6,0-14.7s-10.6-4-14.7,0C425.9,1374.9,425.9,1381.5,429.9,1385.5"
	/>
<path class="st4" d="M385.7,1292.4c0.3,7.9,0.7,15.8,1.4,23.6h65.6l0.8-23.6H385.7z"/>
<path class="st5" d="M1393.3,1296.3h-0.1l-1066.6-3.9c-15-0.1-27.3-12.2-27.5-27.2l-2.8-197.6c-0.1-9.4,4.5-18.1,12.3-23.3
	l204.9-136.5c12.7-8.4,29.8-5,38.2,7.7c8.4,12.7,5,29.8-7.7,38.2l-192.4,128.2l2.2,155.5l1039.5,3.8c15.2,0.1,27.5,12.4,27.5,27.7
	C1420.9,1284,1408.5,1296.3,1393.3,1296.3"/>
<path class="st6" d="M1399,1266.5L1399,1266.5l-1051.1-3.9c-4.1,0-7.3-3.3-7.3-7.4c0-4,3.3-7.3,7.4-7.3h0l1051.1,3.9
	c4.1,0,7.3,3.3,7.3,7.4C1406.3,1263.2,1403,1266.5,1399,1266.5"/>
<path class="st6" d="M320.6,1063.9c-2.4,0-4.7-1.1-6.1-3.3c-2.3-3.4-1.4-7.9,2-10.2L522,912.6c3.4-2.3,7.9-1.4,10.2,2
	c2.3,3.4,1.4,7.9-2,10.2l-205.5,137.9C323.4,1063.5,322,1063.9,320.6,1063.9"/>
<path class="st7" d="M386.5,941.6c-11.9,0-22.4-8.2-25.1-20L183.9,140.4l-53-25.3c-12.8-6.1-18.3-21.5-12.2-34.3
	c6.1-12.8,21.5-18.3,34.3-12.2l64.2,30.6c7.1,3.4,12.3,9.8,14,17.5l36.2,159.1l1162.7,33c7.9,0.2,15.3,4.1,20,10.4
	c4.7,6.4,6.2,14.5,4.1,22.2l-131.1,473.5c-2.8,10.1-11.4,17.5-21.8,18.7L389.5,941.4C388.5,941.5,387.5,941.6,386.5,941.6
	 M279.3,327.8l127.2,559.8l871.7-102.9l117.7-425.2L279.3,327.8z"/>
<path class="st6" d="M213.5,117.2c-1,0-2.1-0.2-3.1-0.7l-48.3-22.6c-3.7-1.7-5.3-6.1-3.5-9.8c1.7-3.7,6.1-5.3,9.8-3.5l48.3,22.6
	c3.7,1.7,5.3,6.1,3.5,9.8C218.9,115.7,216.3,117.2,213.5,117.2"/>
<path class="st8" d="M196.5,140.7c-1,0-2.1-0.2-3.1-0.7l-48.3-22.6c-3.7-1.7-5.3-6.1-3.5-9.8c1.7-3.7,6.1-5.3,9.8-3.5l48.3,22.6
	c3.7,1.7,5.3,6.1,3.5,9.8C202,139.1,199.3,140.7,196.5,140.7"/>
<path class="st2" d="M141,138.1L42.3,95.2C10.2,81.6-7.4,50.7,3,26.3C13.4,2,47.9-6.6,80,7l102,44.3
	C168.3,80.2,154.7,109.2,141,138.1"/>
<path class="st7" d="M1384.2,509.6L1384.2,509.6L295,506.4c-4.1,0-7.3-3.3-7.3-7.4c0-4.1,3.3-7.3,7.4-7.3h0l1089.1,3.2
	c4.1,0,7.3,3.3,7.3,7.4C1391.5,506.3,1388.2,509.6,1384.2,509.6"/>
<path class="st7" d="M332.2,720.1c-3.8,0-7.1-3-7.3-6.9c-0.3-4.1,2.8-7.5,6.9-7.8l1013.7-65c4.1-0.2,7.6,2.8,7.8,6.9
	c0.3,4.1-2.8,7.5-6.9,7.8l-1013.7,65C332.5,720.1,332.3,720.1,332.2,720.1"/>
<path class="st7" d="M523.1,895.9c-3.4,0-6.5-2.4-7.2-5.9L401.3,319c-0.8-4,1.8-7.9,5.8-8.7c4-0.8,7.9,1.8,8.7,5.8l114.6,571
	c0.8,4-1.8,7.9-5.8,8.7C524,895.9,523.6,895.9,523.1,895.9"/>
<path class="st7" d="M645.3,882.7c-3.6,0-6.7-2.6-7.3-6.2l-85-551.8c-0.6-4,2.1-7.8,6.1-8.4c4-0.6,7.8,2.1,8.4,6.1l85,551.8
	c0.6,4-2.1,7.8-6.1,8.4C646,882.7,645.6,882.7,645.3,882.7"/>
<path class="st7" d="M759.3,867.3c-3.7,0-6.9-2.8-7.3-6.6L694.2,325c-0.4-4,2.5-7.7,6.5-8.1c4-0.4,7.7,2.5,8.1,6.5l57.8,535.7
	c0.4,4-2.5,7.7-6.5,8.1C759.8,867.3,759.6,867.3,759.3,867.3"/>
<path class="st7" d="M864.5,859.9c-4,0-7.2-3.2-7.3-7.2L844.3,333c-0.1-4.1,3.1-7.4,7.2-7.5c0.1,0,0.1,0,0.2,0c4,0,7.2,3.2,7.3,7.2
	l12.8,519.7c0.1,4.1-3.1,7.4-7.2,7.5C864.6,859.9,864.6,859.9,864.5,859.9"/>
<path class="st7" d="M969.3,844.9c-0.1,0-0.3,0-0.4,0c-4.1-0.2-7.2-3.7-6.9-7.8l28.9-506.9c0.2-4.1,3.8-7.2,7.8-6.9
	c4.1,0.2,7.2,3.7,6.9,7.8L976.7,838C976.5,841.9,973.2,844.9,969.3,844.9"/>
<path class="st7" d="M1071.1,828.3v-7.4l-7.2-1.6c0.6-2.9,81.5-473.4,83.2-486.7c0.3-3.8,3.5-6.7,7.3-6.7c4.1,0,7.4,3.3,7.4,7.4
	c0,1,0,2.8-41.7,246.2c-10.4,60.8-20.8,121.4-28.7,166.9c-3.9,22.7-7.2,41.7-9.5,54.9l-2.7,15.4
	C1078.1,823.7,1077.3,828.3,1071.1,828.3"/>
<path class="st7" d="M1176.8,820.3c-0.6,0-1.2-0.1-1.7-0.2c-3.9-1-6.4-4.9-5.4-8.9l115.5-478c1-3.9,4.9-6.4,8.9-5.4
	c3.9,1,6.4,4.9,5.4,8.9l-115.5,478C1183.2,818,1180.1,820.3,1176.8,820.3"/>
<path class="st9" d="M530.3,931.5L530.3,931.5c1.5,17,20.3,28.8,41.8,26.4l275.4-30.8c21.6-2.4,37.9-18.1,36.4-35.1
	c-1.5-16.9-20.3-28.8-41.8-26.4l-275.4,30.8C545.1,898.8,528.8,914.6,530.3,931.5"/>
<path class="st6" d="M1428.5,331.1c-0.1,0-0.1,0-0.2,0L271.5,297.8c-4.1-0.1-7.3-3.5-7.1-7.6c0.1-4.1,3.4-7.3,7.6-7.1l1156.7,33.2
	c4.1,0.1,7.3,3.5,7.1,7.6C1435.7,327.9,1432.4,331.1,1428.5,331.1"/>
<path class="st6" d="M388.6,913.6c-3.7,0-6.8-2.7-7.3-6.5c-0.5-4,2.4-7.7,6.4-8.2l892.7-106.2c4-0.4,7.7,2.4,8.2,6.4
	c0.5,4-2.4,7.7-6.4,8.2L389.5,913.6C389.2,913.6,388.9,913.6,388.6,913.6"/>
<path class="st6" d="M1290.7,798.7c-0.7,0-1.3-0.1-2-0.3c-3.9-1.1-6.2-5.1-5.1-9.1L1401.9,364c1.1-3.9,5.1-6.2,9.1-5.1
	c3.9,1.1,6.2,5.1,5.1,9.1l-118.3,425.3C1296.9,796.5,1293.9,798.7,1290.7,798.7"/>
<path class="st10" d="M3,25.8L3,25.8C13.4,1.5,47.9-7.2,79.9,6.5l102,44.3c-2.2,4.6-4.3,9.2-6.5,13.7l-89.6-39
	C53.8,11.8,19.4,20.5,9,44.8c-2.5,5.9-3.4,12.1-2.8,18.4C-0.5,51-2.1,37.6,3,25.8"/>
<path class="st11" d="M395.1,932.2c-3.7,0-6.8-2.7-7.3-6.5c-0.5-4,2.4-7.7,6.4-8.2l892.7-106.2c4-0.4,7.7,2.4,8.2,6.4
	c0.5,4-2.4,7.7-6.4,8.2L396,932.2C395.7,932.2,395.4,932.2,395.1,932.2"/>
<path class="st12" d="M1391.6,1285.1L1391.6,1285.1l-1051.1-3.9c-4.1,0-7.3-3.3-7.3-7.4c0-4.1,3.3-7.3,7.4-7.3h0l1051.1,3.9
	c4.1,0,7.3,3.3,7.3,7.4C1399,1281.8,1395.7,1285.1,1391.6,1285.1"/>
<path class="st11" d="M337.5,1077.3c-2.4,0-4.7-1.1-6.1-3.3c-2.3-3.4-1.4-7.9,2-10.2L538.8,926c3.4-2.3,7.9-1.4,10.2,2
	c2.3,3.4,1.4,7.9-2,10.2l-205.4,137.9C340.3,1076.9,338.9,1077.3,337.5,1077.3"/>
<path class="st12" d="M1429.7,349.7c-0.1,0-0.1,0-0.2,0L272.8,316.4c-4.1-0.1-7.3-3.5-7.1-7.6c0.1-4.1,3.5-7.3,7.6-7.1L1430,335
	c4.1,0.1,7.3,3.5,7.1,7.6C1437,346.5,1433.7,349.7,1429.7,349.7"/>
<path class="st11" d="M1314.4,798.2c-0.7,0-1.3-0.1-2-0.3c-3.9-1.1-6.2-5.1-5.1-9.1l118.3-425.3c1.1-3.9,5.1-6.2,9.1-5.1
	c3.9,1.1,6.2,5.1,5.1,9.1l-118.3,425.3C1320.6,796.1,1317.7,798.2,1314.4,798.2"/>
<path class="st6" d="M374.2,912.4c-3.4,0-6.4-2.3-7.2-5.7L191.6,143.4c-0.9-4,1.6-7.9,5.5-8.8c4-0.9,7.9,1.6,8.8,5.5l175.5,763.3
	c0.9,4-1.6,7.9-5.5,8.8C375.3,912.4,374.8,912.4,374.2,912.4"/>
<path class="st13" d="M396.3,903.3c-3.3,0-6.4-2.3-7.2-5.7L209.7,117.4c-0.9-4,1.6-7.9,5.5-8.8c4-0.9,7.9,1.6,8.8,5.5l179.4,780.2
	c0.9,4-1.6,7.9-5.5,8.8C397.4,903.3,396.8,903.3,396.3,903.3"/>
<path class="st14" d="M556,946.7c-5.5,0-10.3-4.1-10.9-9.7c-0.7-6.1,3.6-11.5,9.7-12.3c103-12.2,206-24.5,309-36.7
	c6-0.7,11.5,3.6,12.3,9.7c0.7,6.1-3.6,11.5-9.7,12.3c-103,12.2-206,24.4-309,36.7C556.9,946.7,556.4,946.7,556,946.7"/>
<polygon class="st15" points="438.8,506.9 454,506.9 457.3,523.6 442.3,523.3 "/>
<polygon class="st15" points="580.8,507.3 595.8,507.3 598.5,524 583.5,523.7 "/>
<polygon class="st15" points="713.7,507.5 728.8,507.5 730.5,524.2 715.5,523.9 "/>
<polygon class="st15" points="848.5,507.8 863.4,507.8 863.8,524.6 849,524.3 "/>
<polygon class="st15" points="980.8,508.5 995.7,508.5 994.7,525.3 979.9,525 "/>
<polygon class="st15" points="1117.3,508.9 1132.2,508.9 1129.5,525.6 1114.7,525.3 "/>
<polygon class="st15" points="1242.6,509.1 1257.5,509.1 1253.3,525.8 1238.6,525.5 "/>
<polygon class="st15" points="479.9,710.7 494.7,709.7 498,726.2 483.2,726.9 "/>
<polygon class="st15" points="611.4,702.1 625.9,701.1 628.5,717.7 614,718.4 "/>
<polygon class="st15" points="734,694.2 749.1,693.3 750.8,709.9 735.8,710.6 "/>
<polygon class="st15" points="853.1,687 868.1,685.9 868.5,702.5 853.7,703.4 "/>
<polygon class="st15" points="971.2,678.9 986.1,678.1 985.1,694.9 970.3,695.5 "/>
<polygon class="st15" points="1089.8,671.2 1104.7,670.3 1102,687.3 1087.2,687.8 "/>
<polygon class="st15" points="1205.4,663.8 1220.3,663.1 1216.1,680 1201.4,680.5 "/>
<polygon class="st15" points="403.6,331.3 418.7,331.3 422,348 407,347.8 "/>
<polygon class="st15" points="554.6,335.7 569.7,336 572.4,352.7 557.3,352.3 "/>
<polygon class="st15" points="696,339.6 710.8,339.9 712.4,356.7 697.7,356.1 "/>
<polygon class="st15" points="844.7,343.9 859.5,344 860,360.8 845.2,360.3 "/>
<polygon class="st15" points="989.9,348.3 1004.8,348.3 1003.8,365.1 989,364.8 "/>
<polygon class="st15" points="1144.4,352.3 1159,352.7 1156.3,369.4 1141.9,368.8 "/>
<polygon class="st15" points="1280,356.2 1294.9,356.6 1290.7,373.3 1276,372.6 "/>
<path class="st6" d="M317.9,1277.2c-4,0-7.3-3.2-7.4-7.3l-2.3-209.4c0-4.1,3.2-7.4,7.3-7.4h0.1c4,0,7.3,3.2,7.4,7.3l2.3,209.4
	C325.3,1273.8,322,1277.1,317.9,1277.2L317.9,1277.2z"/>
<path class="st16" d="M340.9,1263.6c-4,0-7.3-3.2-7.4-7.3l-2.4-183.5c-0.1-4.1,3.2-7.4,7.3-7.4c4.1,0,7.4,3.2,7.4,7.3l2.4,183.5
	C348.3,1260.2,345.1,1263.6,340.9,1263.6L340.9,1263.6z"/>
</svg>
